<svg xmlns="http://www.w3.org/2000/svg" viewBox="0 0 354.375 279.053"><path fill="#ff6f00" fill-rule="evenodd" d="M204.161 27.905a7.08 7.08 0 0 1 6.033 3.388l18.051 29.508a14.26 14.26 0 0 1-.151 15.117l-17.882 27.951a7.08 7.08 0 0 1-5.957 3.266h-56.11a7.08 7.08 0 0 1-6.133-3.556L125.799 75.35a14.26 14.26 0 0 1-.133-13.959l16.37-29.81a7.08 7.08 0 0 1 6.2-3.676zm-50.737 11.369c-1.64 0-2.661 1.788-1.833 3.209l13.069 22.409a7.08 7.08 0 0 0 6.109 3.517h46.471c1.623 0 2.646-1.755 1.852-3.175l-12.48-22.33a7.08 7.08 0 0 0-6.174-3.63z"/><path fill="#fff" d="M75.633 203.816a15.3 15.3 0 0 0-2.886 1.756 12.6 12.6 0 0 0-2.268 2.218 11.4 11.4 0 0 0-1.494 2.683 7.6 7.6 0 0 0-.567 2.89q0 1.858.618 3.354a8.1 8.1 0 0 0 1.753 2.478 8.2 8.2 0 0 0 2.628 1.601q1.548.566 3.349.566 2.99.001 5.258-1.342 2.319-1.393 4.174-3.612zm6.648-8.514q.464-1.033.361-2.168-.051-1.188-.669-2.116a4.46 4.46 0 0 0-1.599-1.599q-1.03-.62-2.474-.621a5.54 5.54 0 0 0-3.451 1.188 4.35 4.35 0 0 0-1.084 1.394q-.411.825-.411 1.857 0 .827.411 1.807.413.98.98 1.909.619.93 1.288 1.806.67.826 1.186 1.445a53 53 0 0 0 3.091-2.012 6.9 6.9 0 0 0 2.371-2.89m5.669 18.269a9.3 9.3 0 0 0 1.237-3.458q.309-1.858.309-3.768h3.041a28.4 28.4 0 0 1-.67 5.058 13.7 13.7 0 0 1-1.907 4.644l6.03 7.122h-4.175l-3.608-4.387q-2.421 2.89-5.204 4.129t-6.494 1.238q-2.423 0-4.535-.826a11.2 11.2 0 0 1-3.71-2.219 11 11 0 0 1-2.474-3.457q-.877-2.065-.876-4.541 0-2.066.722-3.819a12.4 12.4 0 0 1 1.907-3.199 14.2 14.2 0 0 1 2.833-2.53q1.6-1.135 3.401-1.961a30 30 0 0 1-2.73-3.766q-1.237-2.065-1.237-4.541 0-1.755.669-3.097a6.7 6.7 0 0 1 1.805-2.322 7.7 7.7 0 0 1 2.627-1.394 11.3 11.3 0 0 1 3.247-.464q1.702 0 3.144.567 1.443.568 2.474 1.549a6.8 6.8 0 0 1 1.597 2.322 6.7 6.7 0 0 1 .567 2.735q0 1.857-.618 3.251a8 8 0 0 1-1.598 2.425 13 13 0 0 1-2.318 1.909 96 96 0 0 1-2.784 1.756zm-46.092-83.815h5.161v37.627h-5.161zm27.866 17.239q3.596 0 5.676-1.435 2.106-1.433 2.105-5.174 0-4.021-2.927-5.482-1.566-.768-4.186-.768h-12.48v12.859zm-16.923-17.239h17.463q4.315 0 7.113 1.255 5.317 2.408 5.317 8.888 0 3.381-1.413 5.533-1.386 2.151-3.904 3.458 2.21.897 3.313 2.357 1.13 1.46 1.259 4.738l.18 5.047q.076 2.151.359 3.201.462 1.793 1.644 2.306v.844h-6.266q-.257-.485-.412-1.254-.154-.768-.256-2.971l-.309-6.276q-.18-3.688-2.747-4.944-1.464-.691-4.597-.691H57.912v16.136h-5.111zm34.236 0h5.11v33.146h19.107v4.481H87.037zm39.041 25.487q.18 3.202 1.515 5.199 2.542 3.74 8.963 3.74 2.877 0 5.238-.82 4.572-1.587 4.572-5.686 0-3.074-1.927-4.379-1.95-1.282-6.111-2.23l-5.11-1.151q-5.01-1.128-7.089-2.486-3.594-2.356-3.595-7.044 0-5.072 3.518-8.325 3.519-3.253 9.963-3.253 5.934 0 10.069 2.869 4.16 2.843 4.159 9.12h-4.802q-.386-3.025-1.643-4.637-2.337-2.946-7.936-2.946-4.519 0-6.497 1.895t-1.978 4.405q0 2.768 2.312 4.048 1.515.82 6.857 2.05l5.29 1.203q3.826.871 5.907 2.383 3.594 2.638 3.595 7.659 0 6.25-4.572 8.94-4.545 2.688-10.58 2.688-7.036 0-11.017-3.586-3.98-3.56-3.904-9.656zm38.575-16.086q4.648 0 7.55 2.254 2.93 2.255 3.519 7.761h-4.494q-.411-2.536-1.875-4.201-1.464-1.69-4.7-1.691-4.417 0-6.317 4.304-1.233 2.792-1.233 6.89 0 4.124 1.746 6.942 1.747 2.817 5.497 2.817 2.876 0 4.544-1.741 1.696-1.768 2.338-4.816h4.494q-.77 5.455-3.852 7.993-3.082 2.508-7.884 2.509-5.392 0-8.604-3.919-3.21-3.945-3.21-9.836 0-7.223 3.519-11.245 3.519-4.02 8.962-4.021m16.081 20.927q-.001 1.998 1.463 3.151t3.467 1.151q2.44 0 4.725-1.126 3.852-1.87 3.852-6.122v-3.714q-.847.538-2.183.897-1.334.357-2.62.512l-2.798.358q-2.518.334-3.776 1.051-2.13 1.204-2.13 3.842m11.195-9.325q1.593-.204 2.132-1.331.309-.615.309-1.767 0-2.357-1.696-3.406-1.669-1.077-4.802-1.077-3.621 0-5.136 1.947-.847 1.076-1.104 3.202h-4.314q.128-5.073 3.286-7.044 3.185-1.998 7.371-1.998 4.855 0 7.883 1.845 3.006 1.843 3.006 5.736v15.805q0 .717.282 1.153.308.436 1.259.435.308 0 .693-.026.385-.05.822-.128v3.407q-1.079.308-1.643.384a12 12 0 0 1-1.542.077q-2.387 0-3.466-1.69-.566-.897-.797-2.536-1.412 1.844-4.057 3.202t-5.83 1.357q-3.825 0-6.266-2.305-2.413-2.332-2.413-5.815 0-3.816 2.387-5.917t6.266-2.587zm11.382-10.808h4.39v3.893q1.952-2.407 4.135-3.458 2.183-1.05 4.852-1.049 5.858-.001 7.911 4.072 1.13 2.228 1.13 6.378v17.596h-4.699v-17.29q0-2.508-.746-4.046-1.231-2.562-4.469-2.562-1.642 0-2.695.333-1.901.564-3.339 2.254-1.155 1.358-1.516 2.818-.333 1.434-.332 4.124v14.369h-4.622zm26.12 0h4.391v3.893q1.951-2.407 4.134-3.458 2.184-1.05 4.853-1.049 5.856-.001 7.911 4.072 1.13 2.228 1.129 6.378v17.596h-4.699v-17.29q0-2.508-.744-4.046-1.235-2.562-4.47-2.562-1.643 0-2.694.333-1.903.564-3.341 2.254-1.156 1.358-1.515 2.818-.334 1.434-.333 4.124v14.369h-4.622zm26.12.128h4.699v27.304h-4.699zm0-10.323h4.699v5.225h-4.699zm8.555 10.195h4.391v3.893q1.95-2.407 4.135-3.458 2.182-1.05 4.852-1.049 5.856-.001 7.911 4.072 1.13 2.228 1.129 6.378v17.596h-4.699v-17.29q0-2.508-.744-4.046-1.234-2.562-4.469-2.562-1.644 0-2.696.333-1.902.564-3.339 2.254-1.156 1.358-1.516 2.818-.332 1.434-.333 4.124v14.369h-4.622zm35.827-.487q3.236 0 5.65 1.588 1.31.895 2.671 2.613v-3.458h4.263v24.949q0 5.224-1.541 8.248-2.876 5.584-10.863 5.584-4.442 0-7.473-1.998-3.03-1.973-3.39-6.199h4.699q.335 1.843 1.337 2.842 1.565 1.538 4.929 1.538 5.317 0 6.961-3.74.974-2.202.898-7.864-1.388 2.101-3.338 3.125-1.952 1.026-5.162 1.025-4.47 0-7.832-3.151-3.34-3.175-3.34-10.476 0-6.89 3.365-10.758 3.39-3.868 8.166-3.868m8.321 14.088q0-5.097-2.107-7.556-2.104-2.46-5.365-2.459-4.881 0-6.678 4.559-.95 2.433-.95 6.378 0 4.637 1.875 7.07 1.9 2.408 5.084 2.408 4.982 0 7.011-4.483 1.13-2.536 1.13-5.917m-186.2 70.597v-38.136h5.234l11.881 33.633h.102l11.68-33.633h5.185v38.136h-3.423v-34.005h-.101l-11.882 34.005h-3.221l-11.931-34.005h-.102v34.005zm52.127 0q-2.715-.05-5.105-.893a11.8 11.8 0 0 1-4.127-2.532q-1.736-1.687-2.769-4.217-1.03-2.532-1.031-5.907 0-2.829.813-5.26.816-2.482 2.445-4.318 1.628-1.836 4.071-2.879 2.443-1.09 5.703-1.091 3.311 0 5.755 1.091 2.443 1.043 4.072 2.879 1.63 1.787 2.389 4.269.815 2.48.815 5.309 0 3.078-.923 5.558-.922 2.482-2.661 4.268-1.683 1.788-4.127 2.78-2.388.943-5.32.943m9.556-13.549q0-2.282-.543-4.267t-1.684-3.424q-1.14-1.49-2.931-2.333-1.793-.844-4.398-.844-2.552 0-4.399.943a8.1 8.1 0 0 0-2.932 2.431q-1.14 1.49-1.684 3.475-.541 1.935-.542 4.019.001 2.383.596 4.417.653 1.986 1.847 3.424 1.196 1.44 2.986 2.233 1.793.795 4.128.795 2.551 0 4.343-.893 1.847-.943 2.986-2.482a10.6 10.6 0 0 0 1.684-3.474q.544-1.934.543-4.02m56.169-1.786q0-1.888-.591-3.523-.538-1.688-1.668-2.879-1.076-1.241-2.742-1.936-1.668-.744-3.819-.744t-3.818.744a9.1 9.1 0 0 0-2.796 1.986 10.2 10.2 0 0 0-1.83 2.878 12.6 12.6 0 0 0-.914 3.474zm-18.178 2.482q.001 2.084.592 3.969.593 1.836 1.721 3.227 1.183 1.34 2.958 2.182 1.775.795 4.087.795 3.174 0 5.431-1.539 2.26-1.538 3.012-4.367h3.605a16 16 0 0 1-1.56 3.424 11.3 11.3 0 0 1-2.42 2.73q-1.454 1.142-3.443 1.787t-4.625.645q-3.335 0-5.753-1.042-2.421-1.043-3.98-2.829-1.561-1.837-2.312-4.269-.755-2.48-.754-5.309 0-2.828.86-5.311.916-2.48 2.528-4.317a11.5 11.5 0 0 1 4.033-2.929q2.367-1.09 5.378-1.091 5.755 0 9.035 3.672 3.28 3.624 3.227 10.572zm87.503-.025q0-2.428-.657-4.498-.6-2.12-1.807-3.619a8.4 8.4 0 0 0-3.01-2.431q-1.809-.879-4.108-.879-2.08 0-3.833.724a8.5 8.5 0 0 0-3.065 2.017q-1.314 1.345-2.081 3.309-.713 1.914-.713 4.446-.108 2.536.438 4.758.55 2.173 1.753 3.826a8.8 8.8 0 0 0 3.067 2.638q1.86.93 4.434.93 2.246 0 3.996-.878 1.809-.931 3.013-2.431a11 11 0 0 0 1.916-3.568q.657-2.067.657-4.344m0-13.495h3.286v24.199c0 1.792-.201 5.171-.602 6.792q-.548 2.483-2.026 4.344-1.478 1.86-4.052 2.946-2.573 1.138-6.626 1.138-3.121 0-5.365-.775-2.246-.725-3.67-1.862-1.422-1.137-2.19-2.533-.71-1.344-.766-2.534h3.504q.383 1.498 1.205 2.431a5.6 5.6 0 0 0 1.917 1.499 8.6 8.6 0 0 0 2.518.776q1.37.206 2.847.207 3.34 0 5.367-1.087 2.026-1.085 3.066-2.844t1.314-3.981c.219-1.483.31-4.671.273-6.223q-1.586 2.48-4.38 3.775a13.75 13.75 0 0 1-5.749 1.241q-3.23 0-5.64-1.138-2.354-1.189-3.942-3.102-1.533-1.965-2.3-4.55a18.9 18.9 0 0 1-.767-5.379q0-2.948.712-5.532.711-2.584 2.246-4.447 1.587-1.913 3.996-2.999t5.859-1.086q1.37 0 2.792.362 1.424.363 2.738 1.034a10 10 0 0 1 2.465 1.707 8.9 8.9 0 0 1 1.86 2.326h.11zm-44.765 26.373h-3.074v-25.407h3.074v3.532q1.842-1.864 3.79-3.041 1.997-1.178 4.763-1.178 2.46 0 4.559.834 2.1.785 3.535 2.796.972 1.372 1.126 2.845.205 1.422.205 2.991v16.628h-3.074v-16.578q0-3.434-1.588-5.149-1.587-1.718-5.275-1.718-1.434 0-2.612.442a8.2 8.2 0 0 0-2.151 1.079 7.8 7.8 0 0 0-1.588 1.569 7.2 7.2 0 0 0-1.024 1.864 9 9 0 0 0-.565 2.354q-.1 1.128-.101 2.453zm-9.955 0v-27.436h2.735v27.436zm-.136-33.422v-4.714h3.007v4.714zm-8.019 33.422v-38.136h3.007v38.136zm-34.235-14.288q0-2.286-.631-4.313-.633-2.078-1.843-3.584a8.2 8.2 0 0 0-2.895-2.443q-1.687-.935-3.843-.935-2.477 0-4.266.988a8.1 8.1 0 0 0-2.948 2.598q-1.16 1.662-1.684 3.896-.528 2.182-.422 4.729 0 2.545.684 4.52.738 1.922 2.001 3.272a8.7 8.7 0 0 0 2.948 2.079q1.684.675 3.687.675 2.21 0 3.948-.883a8.4 8.4 0 0 0 2.895-2.389q1.158-1.561 1.738-3.638.631-2.13.631-4.572m0 14.288v-5.456h-.105a8.6 8.6 0 0 1-1.791 2.391 10.4 10.4 0 0 1-2.367 1.662q-1.265.675-2.634 1.039-1.37.363-2.685.364-3.317 0-5.633-1.091-2.319-1.091-3.844-2.962-1.474-1.923-2.158-4.519-.685-2.598-.685-5.561 0-2.805.737-5.403t2.211-4.521a11 11 0 0 1 3.792-3.116q2.316-1.195 5.422-1.195 2.895 0 5.528 1.299 2.686 1.247 4.212 3.74v-14.807h3.159v38.136"/></svg>